<?xml version="1.0" encoding="utf-8"?>
<!-- Generator: Adobe Illustrator 22.1.0, SVG Export Plug-In . SVG Version: 6.00 Build 0)  -->
<svg version="1.1" id="Layer_1" xmlns="http://www.w3.org/2000/svg" xmlns:xlink="http://www.w3.org/1999/xlink" x="0px" y="0px"
	 viewBox="0 0 200 178" style="enable-background:new 0 0 200 178;" xml:space="preserve">
<style type="text/css">
	.st0{fill:#F29100;}
</style>
<g>
	<path class="st0" d="M108.3,55.1L64.9,168.8c-1.9,5-5.5,7.8-10.6,8.3h-18c-6.3-0.5-8.3-4.7-6-12.5L91.2,11.1
		C95.1,4.2,102.8,0.9,114.3,1c11.4,0.1,18.9,3.7,22.3,10.9l62.6,153.4c2.1,7.3,0.1,11-6,11.1l-18,0.5c-5.2-0.5-8.8-3.3-10.8-8.4
		l-44-113.6C116.3,42.9,112.3,42.9,108.3,55.1z"/>
	<path class="st0" d="M96.3,156.1c0,11.6,6,17.6,17.9,17.8c11.9,0.1,17.9-5.6,17.9-17.4c0-11.7-5.7-17.6-17.1-17.6
		C102.5,138.7,96.3,144.4,96.3,156.1z"/>
	<polygon class="st0" points="0.4,176.8 0.4,1.2 72,1.2 	"/>
</g>
</svg>
